<?xml version="1.0" standalone="no"?>
<!DOCTYPE svg PUBLIC "-//W3C//DTD SVG 20010904//EN"
 "http://www.w3.org/TR/2001/REC-SVG-20010904/DTD/svg10.dtd">
<svg version="1.0" xmlns="http://www.w3.org/2000/svg"
 width="238.000000pt" height="238.000000pt" viewBox="0 0 238.000000 238.000000"
 preserveAspectRatio="xMidYMid meet">
<metadata>
Created by potrace 1.11, written by Peter Selinger 2001-2013
</metadata>
<g transform="translate(0.000000,238.000000) scale(0.100000,-0.100000)"
fill="#000000" stroke="none">
<path d="M1211 2264 c-33 -28 -47 -75 -33 -113 7 -21 -7 -47 -111 -200 -168
-246 -262 -385 -592 -871 -363 -534 -357 -526 -392 -533 -66 -13 -100 -82 -73
-151 21 -57 119 -79 164 -37 15 15 30 19 51 15 16 -3 112 -21 214 -40 103 -19
224 -41 271 -50 47 -8 105 -19 130 -25 25 -5 95 -18 155 -29 110 -19 148 -26
195 -35 14 -3 39 -7 55 -10 17 -3 41 -7 55 -10 14 -3 50 -9 80 -15 30 -6 66
-12 80 -15 14 -3 49 -9 78 -15 29 -5 65 -19 79 -30 53 -41 139 -15 167 50 7
17 84 84 196 171 102 79 196 153 209 165 18 17 32 21 62 17 80 -11 136 43 126
121 -6 40 -43 86 -70 86 -12 0 -175 251 -683 1050 -227 356 -239 377 -239 424
-1 42 -5 52 -33 77 -43 38 -98 40 -141 3z m63 -230 c19 -89 67 -333 71 -353 3
-14 7 -37 10 -51 8 -38 25 -121 31 -155 3 -16 11 -61 19 -100 8 -38 16 -81 19
-95 3 -14 7 -36 10 -50 7 -31 24 -117 30 -150 3 -14 10 -50 16 -80 6 -30 14
-66 16 -80 3 -14 12 -56 19 -95 8 -38 16 -79 18 -90 6 -30 20 -98 23 -115 1
-8 17 -87 35 -176 l31 -160 -24 -27 -25 -27 -79 15 c-43 7 -115 21 -159 29
-44 8 -92 17 -108 20 -59 10 -166 31 -217 41 -14 2 -41 7 -60 10 -19 3 -55 9
-80 14 -71 14 -153 30 -183 35 -34 6 -147 27 -167 31 -8 2 -24 4 -34 4 -33 2
-9 14 31 16 71 4 238 17 273 20 19 2 80 6 135 9 55 4 116 8 135 11 19 2 78 7
130 10 52 3 109 8 125 10 17 2 58 5 93 6 69 2 77 8 68 44 -5 21 -11 24 -39 20
-17 -2 -66 -6 -107 -9 -202 -15 -238 -18 -275 -21 -22 -2 -89 -6 -150 -10 -60
-4 -117 -9 -125 -10 -9 -2 -65 -6 -125 -10 -61 -3 -121 -8 -135 -10 -14 -2
-72 -7 -129 -10 -58 -4 -118 -8 -134 -10 -64 -8 -60 0 98 233 85 125 223 328
307 452 84 124 189 279 234 345 46 66 147 215 226 332 79 116 144 210 146 209
1 -2 4 -12 6 -22z m416 -574 c61 -96 199 -311 305 -477 182 -283 193 -303 182
-327 -8 -17 -20 -26 -37 -27 -14 0 -34 -2 -45 -4 -11 -2 -67 -7 -125 -11 -58
-3 -116 -8 -130 -9 -14 -2 -44 -4 -67 -4 -42 -1 -43 -2 -43 -37 0 -19 3 -33 8
-31 7 5 76 10 273 23 52 3 99 8 104 11 26 15 -24 -26 -190 -156 -116 -91 -183
-137 -189 -131 -6 6 -18 10 -27 10 -10 0 -20 4 -24 9 -5 9 -263 1288 -270
1341 -1 14 -11 61 -20 105 -9 44 -19 89 -21 100 -2 11 -6 31 -9 45 -26 127
-50 159 325 -430z"/>
</g>
</svg>
